Coordinates
version=1
nRows=26
nColumns=24
inDegrees=yes

Units are S.I. units (second, meters, Newtons, ...)
Angles are in degrees.

endheader
time	pelvis_tilt	pelvis_list	pelvis_rotation	pelvis_tx	pelvis_ty	pelvis_tz	hip_flexion_r	hip_adduction_r	hip_rotation_r	knee_angle_r	ankle_angle_r	subtalar_angle_r	mtp_angle_r	hip_flexion_l	hip_adduction_l	hip_rotation_l	knee_angle_l	ankle_angle_l	subtalar_angle_l	mtp_angle_l	lumbar_extension	lumbar_bending	lumbar_rotation
      0.74550000	     -5.49323116	      2.42260787	      1.14881558	     -0.38804922	      1.06588837	      0.33659833	     17.63464357	      0.75691510	     -1.18294962	    -20.38556944	     10.24818657	     -4.10420629	      5.55844404	     23.95429538	     -2.85073631	     -4.10194412	    -70.56764380	     11.23240403	     11.56721755	      4.32180999	    -10.59560943	      2.77990470	      2.47308328
      0.74966667	     -5.46060328	      2.51234404	      0.98866960	     -0.38295171	      1.06679228	      0.33718645	     17.16123059	      0.72798175	     -1.05366223	    -20.07819600	     10.33987303	     -4.05186241	      5.53751188	     24.38187530	     -2.84479514	     -4.26381878	    -70.09342258	     11.45487278	     11.81528928	      4.32732716	    -10.61182820	      2.62419771	      2.70714081
      0.75383333	     -5.43604249	      2.61467731	      0.81075412	     -0.37786553	      1.06765631	      0.33779139	     16.70511042	      0.68610983	     -0.90728696	    -19.78281191	     10.40747731	     -3.97348059	      5.52825412	     24.80188507	     -2.83344652	     -4.45120499	    -69.57555634	     11.66877130	     11.99127023	      4.33330993	    -10.61143971	      2.46565846	      2.79815905
      0.75800000	     -5.39158490	      2.71964451	      0.63184813	     -0.37280488	      1.06851746	      0.33841593	     16.22717448	      0.64332564	     -0.74452200	    -19.48306526	     10.49635637	     -3.92133402	      5.51695619	     25.18981241	     -2.82320282	     -4.63989490	    -69.01762295	     11.85877741	     12.18064631	      4.33962375	    -10.64937959	      2.29698000	      2.95973332
      0.76216667	     -5.38261438	      2.82459612	      0.45373860	     -0.36774378	      1.06928215	      0.33903036	     15.78948858	      0.59748691	     -0.57882806	    -19.18619237	     10.57608593	     -3.88120044	      5.50426067	     25.60665557	     -2.81272039	     -4.82759612	    -68.42613997	     12.01738537	     12.31167520	      4.34517703	    -10.64469524	      2.13018141	      3.13520438
      0.76633333	     -5.34158420	      2.92810317	      0.27743394	     -0.36269842	      1.07007384	      0.33964101	     15.31385806	      0.55223553	     -0.40818309	    -18.87877613	     10.66189981	     -3.86892337	      5.48306071	     25.97616920	     -2.80100155	     -5.00762322	    -67.79360885	     12.15000336	     12.41098425	      4.35160677	    -10.67783781	      1.96712677	      3.38170809
      0.77050000	     -5.32629732	      3.02275400	      0.09472147	     -0.35765607	      1.07077511	      0.34025776	     14.87115080	      0.51437097	     -0.23691313	    -18.57993870	     10.73254032	     -3.82747893	      5.46911283	     26.36512324	     -2.80677013	     -5.20153802	    -67.13730524	     12.27857612	     12.46882226	      4.35618481	    -10.67577601	      1.81169021	      3.50810774
      0.77466667	     -5.30077784	      3.12754436	     -0.08491685	     -0.35262412	      1.07146520	      0.34087431	     14.41819448	      0.46404160	     -0.05936495	    -18.28083029	     10.81310717	     -3.81122687	      5.45264950	     26.72830174	     -2.79946752	     -5.39207346	    -66.43721028	     12.37785989	     12.49668254	      4.36004144	    -10.68702181	      1.64406142	      3.67579713
      0.77883333	     -5.29302098	      3.21769217	     -0.25564480	     -0.34759977	      1.07207386	      0.34148068	     13.98006799	      0.42679344	      0.11674267	    -17.97153722	     10.89230474	     -3.81713936	      5.42314481	     27.10629669	     -2.80464351	     -5.56700452	    -65.71647843	     12.45555568	     12.48328294	      4.36501511	    -10.68256221	      1.46373059	      3.91951206
      0.78300000	     -5.29330045	      3.32090557	     -0.43426005	     -0.34257677	      1.07263915	      0.34207931	     13.56325876	      0.37068617	      0.28614002	    -17.68781677	     10.96973024	     -3.77004199	      5.41033143	     27.47524499	     -2.79817497	     -5.75531566	    -64.95454642	     12.52265639	     12.44224099	      4.36665348	    -10.66171090	      1.31358914	      3.99458604
      0.78716667	     -5.27782733	      3.42998859	     -0.60665299	     -0.33756990	      1.07319942	      0.34266219	     13.12949763	      0.30482862	      0.45388878	    -17.40266424	     11.06244646	     -3.75344346	      5.39274073	     27.81366483	     -2.77732211	     -5.93070638	    -64.15229241	     12.56069911	     12.35877752	      4.36730512	    -10.66374902	      1.14487903	      4.14342460
      0.79133333	     -5.26476032	      3.50726344	     -0.76373515	     -0.33258686	      1.07368685	      0.34320754	     12.69152820	      0.26797263	      0.61124694	    -17.10189840	     11.15201500	     -3.75547234	      5.36203332	     28.15767289	     -2.78301487	     -6.07925265	    -63.34496809	     12.58597657	     12.24473285	      4.36912232	    -10.66877449	      0.99030503	      4.35609259
      0.79550000	     -5.26754280	      3.60735222	     -0.92453617	     -0.32759262	      1.07413259	      0.34374853	     12.28078808	      0.20306941	      0.76388191	    -16.82266421	     11.24716470	     -3.72974627	      5.33541603	     28.49617533	     -2.76139790	     -6.23355393	    -62.48707749	     12.59183729	     12.09993001	      4.36865821	    -10.64934438	      0.83510193	      4.48133628
      0.79966667	     -5.27446683	      3.70053832	     -1.08563748	     -0.32261838	      1.07452422	      0.34427631	     11.87835895	      0.14269412	      0.91742622	    -16.54766615	     11.33595792	     -3.69503031	      5.31742416	     28.82994906	     -2.74629483	     -6.38400876	    -61.60477222	     12.58630602	     11.93470670	      4.36575249	    -10.63064082	      0.69589201	      4.56781632
      0.80383333	     -5.27078168	      3.78803663	     -1.22559430	     -0.31765265	      1.07489461	      0.34475312	     11.46085944	      0.08042752	      1.04416533	    -16.26830984	     11.44506075	     -3.67059110	      5.28945696	     29.14433520	     -2.71805496	     -6.49884612	    -60.69461720	     12.55034457	     11.71429229	      4.36159752	    -10.62605722	      0.54641483	      4.71256672
      0.80800000	     -5.27813123	      3.87031187	     -1.37431145	     -0.31270394	      1.07519132	      0.34523179	     11.06304834	      0.02300434	      1.18235298	    -16.00069382	     11.54122231	     -3.62904226	      5.27367742	     29.45902709	     -2.70092734	     -6.62304569	    -59.76177088	     12.51459258	     11.50470138	      4.35589397	    -10.61681535	      0.41602122	      4.77899446
      0.81216667	     -5.29974898	      3.94611821	     -1.50708887	     -0.30776259	      1.07541970	      0.34565503	     10.68385876	     -0.03377387	      1.29888404	    -15.74227789	     11.65072587	     -3.60239848	      5.25540616	     29.78036965	     -2.67253709	     -6.71187661	    -58.80212213	     12.45253094	     11.24948552	      4.34812877	    -10.58435721	      0.30535509	      4.87409821
      0.81633333	     -5.30927701	      4.01524525	     -1.63421922	     -0.30283465	      1.07563024	      0.34605753	     10.29090142	     -0.08753361	      1.40856228	    -15.48077812	     11.76165682	     -3.56537836	      5.23672624	     30.07834041	     -2.64454064	     -6.78882925	    -57.81919554	     12.37916799	     10.97690194	      4.33836879	    -10.57381141	      0.19291138	      4.95980004
      0.82050000	     -5.30626452	      4.08078999	     -1.75452681	     -0.29791882	      1.07582591	      0.34642491	      9.88656013	     -0.14318389	      1.50284065	    -15.22364982	     11.87687696	     -3.52348270	      5.21739414	     30.35043586	     -2.60970820	     -6.84875505	    -56.80782936	     12.28877552	     10.68463863	      4.32664963	    -10.58394488	      0.08791085	      5.03539427
      0.82466667	     -5.32397528	      4.14083348	     -1.86837579	     -0.29300724	      1.07593807	      0.34676315	      9.50725374	     -0.19539348	      1.59209479	    -14.97224780	     11.99715866	     -3.47672901	      5.19730468	     30.63421409	     -2.57222350	     -6.89069961	    -55.77379130	     12.18810943	     10.38087907	      4.31297199	    -10.57007748	     -0.00524861	      5.10217402
      0.82883333	     -5.32546812	      4.19538690	     -1.97519682	     -0.28811611	      1.07603649	      0.34707054	      9.11281211	     -0.24683923	      1.66759042	    -14.72450267	     12.12000697	     -3.42372983	      5.17807369	     30.89020287	     -2.53014190	     -6.91391053	    -54.71727917	     12.07464595	     10.06333339	      4.29711556	    -10.58188519	     -0.08961602	      5.15461517
      0.83300000	     -5.34826294	      4.22577997	     -2.07326344	     -0.28322949	      1.07604165	      0.34733573	      8.74069632	     -0.27471587	      1.73857076	    -14.47747625	     12.24243304	     -3.37361771	      5.15968827	     31.16358447	     -2.50520394	     -6.91397277	    -53.65145845	     11.95961095	      9.74716235	      4.27993606	    -10.57080465	     -0.14126752	      5.19748745
      0.83716667	     -5.36697746	      4.26902823	     -2.16742360	     -0.27834526	      1.07602918	      0.34758252	      8.36987094	     -0.32035174	      1.79461261	    -14.24178834	     12.37251321	     -3.31632694	      5.13984626	     31.41451445	     -2.45702747	     -6.90114587	    -52.54977861	     11.82856096	      9.41849050	      4.25990229	    -10.56787724	     -0.20761969	      5.22866771
      0.84133333	     -5.40038064	      4.29007861	     -2.25020199	     -0.27347437	      1.07592613	      0.34778928	      8.00990349	     -0.34459919	      1.84558085	    -13.99554112	     12.50488635	     -3.25497842	      5.12210967	     31.67923263	     -2.42596884	     -6.87159651	    -51.44629906	     11.70022879	      9.10188933	      4.23940641	    -10.56261644	     -0.23986227	      5.25232814
      0.84550000	     -5.40065257	      4.31358317	     -2.33402090	     -0.26861767	      1.07586555	      0.34797495	      7.62263126	     -0.37618050	      1.88661950	    -13.76800428	     12.63444489	     -3.19180789	      5.10262117	     31.88645345	     -2.37826139	     -6.81682137	    -50.30062558	     11.55845476	      8.76677416	      4.21611653	    -10.58474178	     -0.27484976	      5.26644516
      0.84966667	     -5.42648737	      4.31755518	     -2.40828321	     -0.26376265	      1.07569066	      0.34812269	      7.26388480	     -0.38836714	      1.91762183	    -13.54613722	     12.77369885	     -3.12216136	      5.08192663	     32.11687887	     -2.34480868	     -6.74135259	    -49.15345746	     11.42264030	      8.44262297	      4.19095553	    -10.57765792	     -0.28582827	      5.27377519
